<?xml version="1.0" standalone="no"?>
<svg xmlns:xlink="http://www.w3.org/1999/xlink" id="wave" style="transform:rotate(180deg); transition: 0.3s" viewBox="0 0 1440 170" version="1.1" xmlns="http://www.w3.org/2000/svg"><defs><linearGradient id="sw-gradient-0" x1="0" x2="0" y1="1" y2="0"><stop stop-color="rgba(0, 120, 255, 1)" offset="0%"/><stop stop-color="rgba(139.553, 173.675, 212.061, 1)" offset="100%"/></linearGradient></defs><path style="transform:translate(0, 0px); opacity:1" fill="url(#sw-gradient-0)" d="M0,153L34.3,138.8C68.6,125,137,96,206,73.7C274.3,51,343,34,411,45.3C480,57,549,96,617,102C685.7,108,754,79,823,56.7C891.4,34,960,17,1029,22.7C1097.1,28,1166,57,1234,56.7C1302.9,57,1371,28,1440,34C1508.6,40,1577,79,1646,82.2C1714.3,85,1783,51,1851,36.8C1920,23,1989,28,2057,51C2125.7,74,2194,113,2263,113.3C2331.4,113,2400,74,2469,48.2C2537.1,23,2606,11,2674,8.5C2742.9,6,2811,11,2880,28.3C2948.6,45,3017,74,3086,93.5C3154.3,113,3223,125,3291,110.5C3360,96,3429,57,3497,36.8C3565.7,17,3634,17,3703,36.8C3771.4,57,3840,96,3909,104.8C3977.1,113,4046,91,4114,85C4182.9,79,4251,91,4320,82.2C4388.6,74,4457,45,4526,36.8C4594.3,28,4663,40,4731,45.3C4800,51,4869,51,4903,51L4937.1,51L4937.1,170L4902.9,170C4868.6,170,4800,170,4731,170C4662.9,170,4594,170,4526,170C4457.1,170,4389,170,4320,170C4251.4,170,4183,170,4114,170C4045.7,170,3977,170,3909,170C3840,170,3771,170,3703,170C3634.3,170,3566,170,3497,170C3428.6,170,3360,170,3291,170C3222.9,170,3154,170,3086,170C3017.1,170,2949,170,2880,170C2811.4,170,2743,170,2674,170C2605.7,170,2537,170,2469,170C2400,170,2331,170,2263,170C2194.3,170,2126,170,2057,170C1988.6,170,1920,170,1851,170C1782.9,170,1714,170,1646,170C1577.1,170,1509,170,1440,170C1371.4,170,1303,170,1234,170C1165.7,170,1097,170,1029,170C960,170,891,170,823,170C754.3,170,686,170,617,170C548.6,170,480,170,411,170C342.9,170,274,170,206,170C137.1,170,69,170,34,170L0,170Z"/></svg>